HIERARCHY
ROOT Hips
{
  OFFSET -32.5998 29.0326 120.673
  CHANNELS 6 Xposition Yposition Zposition Zrotation Xrotation Yrotation
  JOINT LeftUpLeg
  {
    OFFSET 8.64259 1.95398 -2.38835
    CHANNELS 3 Zrotation Xrotation Yrotation
    JOINT LeftLeg
    {
      OFFSET 43.7702 0 0
      CHANNELS 3 Zrotation Xrotation Yrotation
      JOINT LeftFoot
      {
        OFFSET 40.6238 0 0
        CHANNELS 3 Zrotation Xrotation Yrotation
        JOINT LeftToeBase
        {
          OFFSET 12.7242 0 0
          CHANNELS 3 Zrotation Xrotation Yrotation
          End Site
          {
            OFFSET 0 0 0
          }
        }
      }
    }
  }
  JOINT RightUpLeg
  {
    OFFSET -8.2249 1.95398 -2.59336
    CHANNELS 3 Zrotation Xrotation Yrotation
    JOINT RightLeg
    {
      OFFSET 43.5653 0 0
      CHANNELS 3 Zrotation Xrotation Yrotation
      JOINT RightFoot
      {
        OFFSET 40.6238 0 0
        CHANNELS 3 Zrotation Xrotation Yrotation
        JOINT RightToeBase
        {
          OFFSET 12.7242 0 0
          CHANNELS 3 Zrotation Xrotation Yrotation
          End Site
          {
            OFFSET 0 0 0
          }
        }
      }
    }
  }
  JOINT Spine
  {
    OFFSET 0.165834 0.87714 6.61349
    CHANNELS 3 Zrotation Xrotation Yrotation
    JOINT Spine1
    {
      OFFSET 7.38963 1.71661e-005 0
      CHANNELS 3 Zrotation Xrotation Yrotation
      JOINT Spine2
      {
        OFFSET 11.9445 1.14441e-005 0
        CHANNELS 3 Zrotation Xrotation Yrotation
        JOINT Spine3
        {
          OFFSET 14.7254 4.19617e-005 0
          CHANNELS 3 Zrotation Xrotation Yrotation
          JOINT Spine4
          {
            OFFSET 10.9679 0 0
            CHANNELS 3 Zrotation Xrotation Yrotation
            JOINT RightShoulder
            {
              OFFSET 2.46616 -1.6653 3.69651
              CHANNELS 3 Zrotation Xrotation Yrotation
              JOINT RightArm
              {
                OFFSET 13.0012 0 0
                CHANNELS 3 Zrotation Xrotation Yrotation
                JOINT RightForeArm
                {
                  OFFSET 28.7848 1.62311e-005 0
                  CHANNELS 3 Zrotation Xrotation Yrotation
                  JOINT RightHand
                  {
                    OFFSET 26.5688 1.62095e-005 0
                    CHANNELS 3 Zrotation Xrotation Yrotation
                    End Site
                    {
                      OFFSET 0 0 0
                    }
                  }
                }
              }
            }
            JOINT LeftShoulder
            {
              OFFSET 2.38034 -1.29275 -3.7523
              CHANNELS 3 Zrotation Xrotation Yrotation
              JOINT LeftArm
              {
                OFFSET 16.3182 6.07031e-005 0
                CHANNELS 3 Zrotation Xrotation Yrotation
                JOINT LeftForeArm
                {
                  OFFSET 27.0901 0 0
                  CHANNELS 3 Zrotation Xrotation Yrotation
                  JOINT LeftHand
                  {
                    OFFSET 24.5451 1.51738e-005 0
                    CHANNELS 3 Zrotation Xrotation Yrotation
                    End Site
                    {
                      OFFSET 0 0 0
                    }
                  }
                }
              }
            }
            JOINT Neck
            {
              OFFSET 5.0226 -0.0266342 0
              CHANNELS 3 Zrotation Xrotation Yrotation
              JOINT Head
              {
                OFFSET 6.69364 2.86102e-005 0
                CHANNELS 3 Zrotation Xrotation Yrotation
                End Site
                {
                  OFFSET 0 0 0
                }
              }
            }
          }
        }
      }
    }
  }
}
MOTION
Frames:	15
Frame Time:	0.0416667
-286.376 85.2354 -280.203 -104.394 30.3479 -81.2792 -171.376 13.4448 98.73 -39.2179 -78.6525 39.2255 134.921 -29.8598 -100.464 3.79027 -26.2025 19.1624 179.35 25.0664 88.248 -70.5576 -17.4462 -6.87568 80.9449 -11.1415 -4.521 26.2595 0.183569 3.54909 -0.570441 8.05206 -90.1846 10.7688 -1.22102 -0.254171 -0.9016 -1.23103 -0.200182 -23.4404 -1.08819 -0.609429 -3.42774 -1.08818 -0.609431 94.8181 -22.2466 -99.2054 50.5494 -9.53627 27.3958 -44.0281 8.23637 -85.3595 -5.4122 -0.192526 -1.14872 -84.9724 -41.3016 85.042 -10.1221 17.0067 -22.8875 39.7335 -26.0436 -109.347 -10.5982 0.151181 -7.73 12.487 3.10717 -1.26751 -10.8743 3.34839 0.011617 
-283.053 88.0649 -277.665 -105.387 29.9415 -79.934 -170.527 3.49246 100.99 -68.5907 -41.5688 7.76953 130.288 -11.3389 -69.7547 -14.3262 -25.5057 3.8352 -179.953 23.1829 89.4032 -62.1186 -17.5436 -7.09004 73.9784 -6.99596 -4.38693 24.9837 0.488114 4.36284 -1.41833 7.9468 -90.1965 10.9817 -2.91464 -0.113868 -0.68595 -2.9168 0.0146183 -23.2454 -2.74556 -0.98525 -3.2328 -2.74555 -0.985252 96.1816 -20.4702 -96.5203 57.484 -14.872 37.3852 -41.8649 13.7418 -87.3939 -3.22504 -0.0885078 -2.96912 -84.9094 -37.1446 84.4605 -7.82303 9.71799 -25.3613 30.7201 -22.8317 -115.071 -5.93921 -0.0649151 -5.15809 8.15108 6.75019 -0.730925 -9.33795 6.69288 1.58859 
-281.35 92.1474 -274.275 -108.793 31.8058 -76.4229 -169.747 -7.13287 98.193 -65.2755 -2.8487 4.08242 107.373 18.6062 -24.8699 -12.5351 -17.7003 -3.0907 -179.915 16.4247 89.8656 -48.6305 -21.5864 -7.81022 65.649 -2.01705 -2.79804 22.3485 1.2971 5.28462 -1.93932 8.17954 -90.4281 10.5135 -4.05946 -0.492243 -1.15113 -4.07719 -0.312821 -23.73 -3.72364 -1.69112 -3.71735 -3.72364 -1.69112 97.1208 -16.9301 -95.1897 60.9467 -16.9503 44.6553 -40.903 18.8589 -90.6735 1.7166 -0.0479577 -6.16527 -85.1168 -33.1212 83.362 -6.40264 5.39131 -24.9629 28.8332 -21.6456 -116.715 -3.52598 -0.0962358 -4.04198 5.99534 10.0948 0.102056 -10.0767 9.66758 4.51021 
-277.792 95.7146 -270.406 -108.778 33.996 -75.1111 -170.965 -9.65747 94.8516 -58.9822 16.3846 3.29339 81.1836 14.5619 3.75686 9.47062 -7.38854 -1.76736 179.157 12.3442 89.6019 -31.8777 -28.7479 -6.93225 57.3547 2.6895 -0.213034 15.3965 3.91837 5.98162 -2.07859 8.16736 -90.6509 10.5256 -4.43913 -0.89864 -1.13796 -4.4744 -0.702017 -23.7216 -3.96358 -2.19309 -3.70894 -3.96358 -2.19309 97.208 -15.8809 -95.2247 58.4736 -13.9368 48.1537 -38.1837 20.046 -94.036 1.08797 -0.0794604 -8.87704 -85.3139 -29.2766 82.1556 -4.30488 7.39638 -26.4485 31.2892 -22.7821 -114.352 -4.7952 -0.124435 -2.79485 4.91346 11.4052 -0.938702 -11.8925 10.9248 6.79153 
-272.321 97.6149 -266.642 -102.9 35.6653 -77.3362 -171.946 -3.22656 94.4067 -54.1799 18.9673 2.80763 71.2228 7.89332 7.16482 16.3621 -3.94557 -2.45784 -178.974 15.1535 90.3528 -24.843 -32.8163 -7.76981 59.5899 0.719168 0.113415 17.0328 3.71811 4.66522 -2.01231 7.61355 -90.8519 11.6278 -4.40192 -1.24064 -0.0361537 -4.45225 -1.04535 -22.6144 -3.8254 -2.50774 -2.60179 -3.82541 -2.50775 96.6774 -16.3108 -96.4832 55.0897 -9.00609 47.5535 -33.7796 18.4468 -96.3704 0.26665 -0.0724866 -10.8955 -85.3938 -26.4935 81.3497 -2.40978 12.4619 -27.1269 34.5605 -24.9264 -111.814 -5.0364 -0.148873 -1.8601 5.10433 11.1032 -6.02826 -14.3853 11.0895 10.2862 
-266.859 97.6696 -261.132 -102.2 41.3364 -79.0408 -172.304 0.241821 89.515 -50.153 11.7004 0.591704 67.6878 4.35431 4.53595 19.5956 -3.81032 -0.0434988 -177.185 19.6638 88.5498 -33.4806 -31.8616 -9.33145 64.706 -2.94394 -1.68391 13.1072 5.21816 5.13395 -1.38908 7.55426 -90.6848 11.7528 -3.08416 -1.0395 0.0852099 -3.12695 -0.902632 -22.4696 -2.62914 -1.91882 -2.45692 -2.62913 -1.91882 95.9641 -18.8089 -97.5404 49.8298 -6.70869 41.6393 -33.477 18.4831 -100.322 -0.0964427 -0.0543397 -10.6206 -85.9832 -29.095 80.7988 0.603376 18.2834 -23.005 35.1315 -27.0552 -111.48 -3.99396 -0.126474 -1.56521 8.48068 10.6875 -8.82554 -15.3908 11.2027 11.3672 
-261.202 96.3901 -256.26 -102.19 43.9945 -78.7513 -172.374 5.29482 89.3775 -51.0726 9.8707 0.00252921 70.1314 5.75926 4.00439 29.5655 -2.58786 7.23167 -177.307 23.0001 88.4689 -45.5629 -19.026 -7.55068 68.7013 -5.01793 -2.36573 15.6299 3.74254 6.17761 -1.08057 7.66906 -90.6919 11.524 -2.47332 -1.1254 -0.14501 -2.52046 -1.0154 -22.6899 -2.02079 -1.81685 -2.67728 -2.02077 -1.81685 94.6936 -22.8308 -99.3066 41.3124 -6.88169 32.4782 -36.5391 20.772 -105.444 -0.138363 -0.0412543 -9.90083 -87.1721 -36.2323 80.2782 3.2753 22.3513 -13.4817 32.0252 -27.0677 -112.98 -3.24078 -0.122602 -0.480973 13.0164 10.356 -9.71293 -16.7124 11.3645 10.4879 
-255.662 94.8264 -251.389 -104.254 46.0826 -76.7335 -170.93 7.94023 89.7935 -51.6992 9.61805 -0.725498 71.3603 7.19976 5.87298 43.4837 4.82367 3.42573 -178.244 23.9803 88.4802 -61.7523 -11.4524 -6.6773 72.0214 -6.44309 -2.90625 16.8802 3.04321 6.68557 -0.663094 7.89044 -90.6334 11.0846 -1.61361 -1.10349 -0.585812 -1.66061 -1.0314 -23.1222 -1.20741 -1.53741 -3.10955 -1.20743 -1.53742 92.1697 -25.4794 -103.969 30.7733 -2.20423 23.1316 -31.2603 20.192 -113.307 -1.89963 -0.0233254 -6.89976 -86.9613 -40.2953 81.5187 -0.320889 25.4832 -4.83007 35.3167 -27.3612 -109.516 -1.56284 -0.0463082 0.961842 14.1888 9.51303 -10.1343 -15.4781 10.9883 9.03903 
-250.744 93.4774 -246.947 -105.763 47.5817 -74.675 -169.459 11.6688 90.8192 -53.8536 10.389 -1.23319 77.5756 11.6463 5.59191 31.683 -1.01318 5.74838 179.639 21.3386 88.1114 -74.1176 -7.01482 -5.811 73.11 -7.43474 -4.5137 16.6987 2.533 8.29016 -0.173399 7.8458 -90.58 11.178 -0.614687 -1.09437 -0.493184 -0.662242 -1.06627 -23.025 -0.25742 -1.22849 -3.0123 -0.257391 -1.2285 93.9872 -27.3441 -99.5089 23.3375 -3.42699 8.81171 -32.016 22.7558 -117.187 -1.08958 -0.0290607 -4.71472 -85.767 -41.5221 83.7515 -10.5681 31.3381 8.94711 38.9542 -29.0726 -106.06 -4.50732 -0.187678 0.840292 13.6442 7.83809 -10.5179 -14.2985 9.63454 7.66373 
-246.28 92.183 -242.606 -103.671 47.9215 -77.5452 -169.5 18.1343 88.4763 -55.8823 6.65297 -1.89285 79.0122 11.8726 4.21803 25.5121 -2.95317 3.55689 177.161 18.2699 84.5509 -82.4661 -4.80551 -5.61927 70.3741 -5.31776 -3.668 16.3702 2.97087 7.44169 0.218789 7.69615 -90.4459 11.4816 0.226959 -0.91137 -0.189609 0.186639 -0.920486 -22.723 0.490357 -0.801041 -2.71033 0.490377 -0.801034 95.3551 -25.6105 -97.0799 16.9273 3.93275 -2.66241 -31.5042 22.5603 -122.077 -1.86184 -0.0427112 -3.78662 -84.3694 -41.0149 86.0103 -23.258 28.3659 26.008 41.3248 -31.6091 -108.657 -6.53148 -0.117013 -3.73843 16.3801 5.52082 -9.13906 -15.1509 7.30098 6.32743 
-242.967 92.1802 -238.773 -105.577 47.2277 -76.6741 -170.33 19.8866 87.2624 -54.9178 7.48215 -1.87607 76.3273 10.2626 5.66133 22.5202 -5.03137 4.97979 173.929 7.59531 80.4392 -82.9071 -10.2465 -6.2563 67.2623 -3.73851 -4.03936 15.6302 3.1947 7.62852 0.863043 7.69505 -90.4675 11.4901 1.49872 -1.08386 -0.180589 1.44958 -1.14878 -22.7207 1.75512 -0.583256 -2.70808 1.75513 -0.583258 95.6007 -19.3227 -98.2705 15.7108 12.53 -4.81026 -25.5643 18.8642 -127.712 -2.01453 -0.0378104 -4.51394 -82.9667 -39.2657 88.1618 -32.5103 27.4834 40.0062 35.0222 -32.6375 -114.388 -7.26302 -0.113794 -3.82971 15.2072 2.70636 -6.35849 -13.7152 4.02344 3.81984 
-239.258 93.293 -235.013 -109.223 46.5296 -73.5927 -171.133 19.1136 88.0554 -50.4864 9.64474 -1.90814 71.5358 7.37042 6.96532 19.3158 -6.16477 4.11737 171.913 -4.85415 79.7541 -76.0339 -18.9348 -7.79074 64.8657 -2.38153 -4.04537 15.7119 2.79011 8.62836 1.79361 7.79109 -90.5404 11.3149 3.31755 -1.40676 -0.352699 3.25239 -1.55152 -22.9211 3.58677 -0.343503 -2.90847 3.58676 -0.343518 96.0041 -14.4818 -98.8523 12.5724 15.2959 -4.09971 -23.5447 17.1788 -129.103 -1.86261 -0.0338268 -4.47528 -81.8223 -34.579 89.673 -35.2869 28.9542 47.0325 29.0308 -33.0048 -120.305 -6.11826 -0.082213 -4.5759 11.8457 -1.28236 -6.20948 -11.8127 0.102589 2.00805 
-234.673 95.449 -230.543 -110.997 47.2861 -72.3549 -172.195 18.058 88.7754 -40.9032 9.63499 -2.17522 62.7944 1.02938 5.62052 15.8547 -5.55297 0.043067 172.448 -14.0987 81.3349 -66.0011 -23.9546 -9.89242 65.734 -3.10292 -3.21984 16.3867 1.81688 10.5977 2.61379 7.78926 -90.4999 11.336 4.96845 -1.49198 -0.326543 4.89796 -1.70966 -22.9382 5.18654 0.074153 -2.92555 5.18656 0.0741597 97.1233 -9.53716 -97.4968 14.547 9.08681 -6.19028 -29.7373 21.3339 -124.279 1.18655 -0.0202707 -4.62912 -81.6083 -31.1489 89.6911 -34.2473 25.3066 49.8221 27.4015 -32.9992 -124.501 -5.03268 -0.0459929 -6.28719 9.03739 -4.16061 -6.89935 -10.9386 -2.6517 1.12236 
-229.15 97.7178 -225.605 -110.098 48.6726 -73.6033 -173.622 16.1435 89.7908 -25.0031 10.0213 -2.15656 50.3957 -6.9653 -0.271412 15.3315 -5.12362 -1.05227 173.242 -17.2059 82.8079 -55.8348 -27.1715 -10.7894 67.4593 -4.6322 -3.48383 18.8962 1.42252 9.08728 2.81674 7.51019 -90.3427 11.8963 5.43977 -1.26861 0.235888 5.37868 -1.50745 -22.3911 5.5688 0.430062 -2.37849 5.56879 0.430058 96.4483 -8.08818 -100.138 15.3208 -0.912744 -7.77425 -34.6727 22.3093 -115.559 2.93474 -0.0260771 -4.93454 -81.1026 -31.2125 90.6724 -31.2694 20.2336 51.8371 26.0392 -31.9941 -127.508 -4.89615 -0.00808294 -8.07826 5.45599 -4.22414 -8.22158 -11.0908 -2.80629 2.74096 
-222.67 98.7425 -220.247 -104.293 49.2826 -78.5522 -174.59 17.8614 90.7633 -15.4174 15.8967 -1.93329 51.8441 -5.16068 -3.14564 19.5075 -7.73585 7.13297 173.629 -13.2758 84.6857 -47.8378 -27.2706 -8.66558 68.9437 -5.63287 -3.11779 21.1529 0.450092 9.52708 2.57821 7.06586 -90.0799 12.7713 5.08218 -0.764416 1.10994 5.04363 -0.987925 -21.5041 5.07634 0.802365 -1.49143 5.07634 0.802366 96.1131 -10.6031 -100.083 16.6088 -9.89858 -10.471 -35.2125 21.0729 -108.71 2.36037 -0.0667726 -6.47229 -82.1716 -32.9747 88.8374 -28.4893 16.4678 48.9303 25.4209 -29.7811 -127.179 -5.22287 -0.00955144 -7.66358 6.9318 -3.30344 -8.23318 -15.1011 -1.83217 2.2653 
